<svg width="272" height="220" viewBox="0 0 272 220" fill="none" xmlns="http://www.w3.org/2000/svg">
<path d="M61.211 111.267C57.7505 111.034 56.1388 111.708 55.0981 112.394C54.764 112.614 54.4344 112.872 54.1229 113.151C55.6957 109.96 57.3068 106.783 58.9485 103.628C58.9591 104.051 59.0344 104.252 59.2205 104.353C59.6462 104.583 60.6393 103.847 62.6082 102.366C64.1049 101.241 64.2961 100.955 64.4073 100.76C64.7986 100.073 64.7653 99.5062 64.5241 97.0368C64.0913 92.6047 63.9798 92.1886 64.1896 91.1421C64.2619 90.7817 64.4591 89.9133 64.3191 89.8635C64.1752 89.8123 63.9516 90.7233 63.1554 91.3177C62.3795 91.897 61.8334 91.5979 61.1282 91.9708C60.2167 92.4528 59.9658 93.5679 59.5884 95.3626C59.2543 96.952 59.3396 97.5142 59.1404 100.509C59.0839 101.357 59.0303 102.017 58.9938 102.537C57.5239 105.347 56.0815 108.178 54.6651 111.021C54.6844 110.942 54.7023 110.869 54.7179 110.805C55.1562 109.008 55.0101 108.179 54.7899 107.597C54.433 106.653 53.7239 106.088 52.32 104.996C50.9443 103.927 49.7807 103.311 48.3824 102.579C46.5494 101.621 45.6329 101.141 45.3843 101.281C44.76 101.633 44.8528 103.477 45.3743 105.784C44.1872 105.172 43.5568 104.885 43.3574 104.997C43.2715 105.046 43.1997 105.123 43.1402 105.225C42.2528 105.182 41.0765 105.232 39.7306 105.409C40.7925 105.025 41.9859 104.518 43.2715 103.827C44.3858 103.228 44.9419 102.924 44.8886 102.672C44.6977 101.771 37.0886 101.79 30.5658 105.213C27.4948 106.825 26.4736 108.243 25.9455 109.372C25.776 109.734 25.6299 110.127 25.5102 110.527C25.1813 106.985 24.8924 103.434 24.6414 99.8864C24.872 100.242 25.0413 100.374 25.2525 100.362C25.7355 100.335 26.1971 99.1888 27.1006 96.8969C27.7874 95.1548 27.8011 94.8116 27.7936 94.5868C27.7675 93.7963 27.4428 93.331 25.9455 91.3526C23.2582 87.8017 22.9455 87.5054 22.5768 86.5037C22.4499 86.1587 22.1637 85.3154 22.0183 85.3463C21.8689 85.3779 22.1549 86.2713 21.7873 87.1943C21.429 88.094 20.8071 88.1247 20.4012 88.8114C19.8765 89.6991 20.246 90.7807 20.8633 92.5077C21.4099 94.0371 21.7766 94.4715 23.1734 97.1279C23.569 97.8804 23.8687 98.471 24.1093 98.933C24.3268 102.097 24.5785 105.264 24.8581 108.428C24.8337 108.351 24.8106 108.279 24.7905 108.217C24.2241 106.456 23.6658 105.826 23.1734 105.444C22.3756 104.827 21.4756 104.716 19.7082 104.52C17.9762 104.328 16.6623 104.412 15.0879 104.52C13.0242 104.662 11.9923 104.733 11.8537 104.982C11.4734 105.667 12.7588 107.423 14.6794 109.302C13.1115 109.413 12.3123 109.494 12.1916 109.712C11.8759 110.28 12.7094 111.587 14.098 113.088C13.1328 113.171 12.6237 113.258 12.5294 113.428C11.4698 115.335 23.3094 125.552 25.9281 123.592C26.127 123.443 26.2678 123.225 26.3648 122.959C26.4077 123.319 26.4516 123.679 26.4953 124.04C23.4017 123.692 17.4589 124.624 13.9329 128.315C12.18 130.149 11.9158 131.733 11.8537 132.242C11.5783 134.498 12.6764 136.9 13.5874 137.076C13.8564 138.756 14.6992 140.146 15.3909 140.134C16.2582 140.118 16.1047 137.915 18.1631 135.513C19.5993 133.837 21.3073 133.005 22.3213 132.51C24.4993 131.448 25.7647 131.479 27.3336 130.614C27.3651 130.847 27.3987 131.08 27.4305 131.313C24.5567 131.795 21.2749 133.028 19.0001 135.409C17.2472 137.243 16.983 138.827 16.9209 139.336C16.7512 140.726 17.1044 142.17 17.6126 143.118C16.2301 144.57 15.8479 146.086 15.0879 149.106C14.6024 151.035 14.7085 151.72 15.0879 152.109C15.4017 152.431 15.8975 152.546 17.8601 152.34C19.9891 152.117 21.0535 152.005 22.0183 151.647C23.5444 151.08 24.5966 150.106 26.6386 148.182C27.4783 147.39 28.1883 146.718 28.7671 146.132C29.0682 146.235 29.3508 146.313 29.6363 146.369C29.6694 146.376 29.7021 146.38 29.7351 146.386C30.2617 149.507 30.8181 152.619 31.4036 155.717C29.4989 156.143 27.8715 157.396 26.9773 159.201L19.9106 173.457C19.4645 174.357 19.2286 175.364 19.2286 176.368V213.027C19.2286 216.642 22.1692 219.582 25.7836 219.582H42.2783C45.8928 219.582 48.8333 216.642 48.8333 213.027V179.271C48.8333 178.448 48.6809 177.643 48.3802 176.876L41.6453 159.717C40.6715 157.236 38.3444 155.62 35.6909 155.562C37.0667 151.933 38.4861 148.307 39.9552 144.697C40.1816 144.609 40.382 144.518 40.556 144.421C40.827 144.718 41.3824 145.065 42.56 145.628C44.4911 146.551 45.4567 147.013 46.4664 147.212C48.0636 147.528 49.4697 147.248 52.2168 146.676C55.9545 145.898 57.8314 145.487 58.2224 144.399C58.7635 142.894 57.0662 140.955 56.5985 140.421C55.5817 139.259 54.4595 138.729 53.7661 138.411C52.8656 137.997 50.2992 136.819 47.1969 137.632C45.2442 138.143 44.1259 139.236 41.8892 141.421C41.6738 141.632 41.4879 141.823 41.3228 142.001C41.2856 141.894 41.2436 141.789 41.1976 141.684C41.5112 140.927 41.825 140.171 42.1424 139.417C44.4361 137.241 45.5649 136.043 45.3506 135.014C45.2501 134.531 44.9459 134.125 44.5544 133.788C44.9895 132.789 45.4255 131.79 45.8668 130.795C46.0697 130.791 46.279 130.781 46.5045 130.76C47.6863 130.648 49.0244 130.522 49.1671 129.955C49.2426 129.654 48.9827 129.215 48.4718 128.721C49.21 128.515 50.3347 127.012 52.8591 126.199C54.9598 125.522 56.8511 125.705 57.974 125.814C60.8716 126.096 61.8171 127.036 64.4222 126.791C65.6041 126.679 66.9422 126.553 67.0849 125.986C67.149 125.731 66.9699 125.375 66.6033 124.972C67.2598 125.062 67.9622 125.134 68.7109 125.177C69.9739 125.25 70.6072 125.281 70.6933 125.039C71.0018 124.171 64.5074 120.206 57.1573 119.712C55.3728 119.592 54.0825 119.714 53.106 119.954C55.4554 119.077 58.9519 117.743 62.7905 118.823C64.112 119.194 66.7864 120.221 70.7378 120.448C72.0008 120.521 72.6341 120.552 72.7202 120.31C73.0286 119.442 66.5397 115.481 59.1934 114.984C60.8985 114.639 62.811 114.543 64.8174 115.107C66.1389 115.478 68.8133 116.505 72.7647 116.732C74.0277 116.805 74.6609 116.836 74.7471 116.594C75.0556 115.726 68.5611 111.761 61.211 111.267ZM27.2566 126.457C27.3561 126.379 27.4537 126.3 27.5478 126.222C27.7164 126.47 27.8945 126.66 28.0726 126.781C28.0915 126.88 28.1119 126.978 28.1346 127.075C27.8837 127.048 27.6148 127.029 27.3302 127.02C27.3062 126.832 27.2804 126.644 27.2566 126.457ZM41.7731 113.458C41.8018 113.622 41.8329 113.79 41.8672 113.961C41.5532 113.901 41.1935 113.858 40.8002 113.833C41.1139 113.719 41.4377 113.595 41.7731 113.458ZM42.5211 116.565C42.28 116.541 42.0221 116.525 41.7509 116.517C41.963 116.355 42.1726 116.191 42.3668 116.028C42.4164 116.206 42.4677 116.385 42.5211 116.565ZM36.9599 121.918C39.4473 120.75 40.7355 120.999 42.7746 119.467C42.9645 119.324 43.159 119.177 43.3478 119.03C44.0245 120.834 44.8344 122.555 45.6687 123.803C43.3324 122.623 40.1225 121.665 36.9599 121.918ZM42.9478 107.036C43.0228 108.021 43.2644 109.272 43.624 110.617C43.6035 110.617 43.5832 110.617 43.5625 110.616C42.6698 110.167 42.1781 109.968 42.0062 110.064C41.8272 110.165 41.7072 110.389 41.6393 110.711C38.834 110.978 35.0528 111.836 31.5792 113.659C28.5083 115.271 27.487 116.688 26.959 117.817C26.7339 118.298 26.5499 118.832 26.4148 119.368C26.3455 118.746 26.2743 118.126 26.2073 117.503C27.717 116.915 29.9994 111.242 35.6481 109.64C36.9273 109.277 39.6121 108.77 42.9478 107.036ZM26.5146 127.017C26.5562 126.987 26.5963 126.96 26.6386 126.929C26.703 126.88 26.768 126.831 26.8332 126.782C26.843 126.859 26.8535 126.936 26.8633 127.013C26.7488 127.013 26.6331 127.014 26.5146 127.017ZM27.7658 130.356C27.9479 130.24 28.1335 130.115 28.3276 129.969C28.6198 129.749 28.9237 129.521 29.1995 129.293C29.4131 129.509 29.6321 129.635 29.8379 129.631C29.9185 129.63 29.9881 129.604 30.0536 129.566C29.8766 130.096 29.7723 130.615 29.7391 131.076C29.1579 131.096 28.5364 131.149 27.8869 131.241C27.8466 130.946 27.8056 130.651 27.7658 130.356ZM35.199 155.557H32.8503C32.5139 155.557 32.1827 155.584 31.8577 155.633C31.282 152.586 30.7347 149.527 30.2159 146.458C31.5971 146.611 32.9752 146.335 35.3866 145.833C37.0952 145.477 38.4106 145.198 39.3774 144.896C37.9391 148.439 36.5473 151.996 35.199 155.557ZM40.6978 140.778C40.891 140.598 41.0955 140.405 41.3086 140.204C41.1783 140.516 41.0516 140.829 40.922 141.141C40.8497 141.015 40.7746 140.894 40.6978 140.778ZM41.8854 132.473C40.4113 132.015 39.1778 132.151 38.4202 132.242C37.4704 132.356 34.8256 132.681 32.6472 134.787C31.92 134.768 31.0967 134.808 30.2195 134.918C30.6866 134.704 31.17 134.425 31.7058 134.023C32.6547 133.309 33.7292 132.502 33.5539 131.944C33.4729 131.686 33.1173 131.472 32.5675 131.319C33.1868 130.908 33.9561 130.485 34.9413 130.168C37.042 129.491 38.9333 129.674 40.0562 129.784C42.4869 130.02 43.547 130.717 45.3624 130.791C44.9633 131.692 44.5696 132.596 44.1756 133.5C43.3327 132.925 42.291 132.599 41.8854 132.473ZM47.2306 127.747C47.2466 127.712 47.2622 127.676 47.2782 127.641C47.4039 127.626 47.528 127.61 47.649 127.593C47.6576 127.775 47.681 127.94 47.7175 128.087C47.5661 127.974 47.4016 127.861 47.2306 127.747ZM51.0443 120.839C51.0331 120.847 51.022 120.855 51.0108 120.863C51.0376 120.766 51.0628 120.673 51.0871 120.583C51.2941 120.554 51.5307 120.496 51.7946 120.415C51.5118 120.55 51.2642 120.694 51.0443 120.839Z" fill="#F2F2F2"/>
<path d="M81.4708 216.49L86.6231 216.49L89.0742 196.616L81.4698 196.617L81.4708 216.49Z" fill="#FFB6B6"/>
<path d="M99.1225 216.374C99.2829 216.644 99.3676 217.516 99.3676 217.83C99.3676 218.796 98.5847 219.579 97.6189 219.579H81.6626C81.0037 219.579 80.4696 219.045 80.4696 218.386V217.721C80.4696 217.721 79.6803 215.725 81.3054 213.264C81.3054 213.264 83.3252 215.191 86.3433 212.173L87.2333 210.56L93.6757 215.272L97.2467 215.712C98.0279 215.808 98.7207 215.697 99.1225 216.374Z" fill="#2F2E41"/>
<path d="M109.848 216.49L115 216.49L117.451 196.616L109.847 196.617L109.848 216.49Z" fill="#FFB6B6"/>
<path d="M127.499 216.374C127.66 216.644 127.744 217.516 127.744 217.83C127.744 218.796 126.961 219.579 125.996 219.579H110.039C109.38 219.579 108.846 219.045 108.846 218.386V217.721C108.846 217.721 108.057 215.725 109.682 213.264C109.682 213.264 111.702 215.191 114.72 212.173L115.61 210.56L122.052 215.272L125.623 215.712C126.405 215.808 127.097 215.697 127.499 216.374Z" fill="#2F2E41"/>
<path d="M107.776 58.2888C107.776 58.2888 113.711 55.5863 117.5 58.2888C121.289 60.9913 124.667 85.3139 120.613 89.3677C116.559 93.4214 109.803 84.3005 109.803 84.3005L107.776 58.2888Z" fill="#FFB6B6"/>
<path d="M85.3489 58.6105C85.3489 58.6105 79.4146 55.908 75.6255 58.6105C71.8364 61.313 68.4582 85.6356 72.512 89.6894C76.5657 93.7431 83.322 84.6222 83.322 84.6222L85.3489 58.6105Z" fill="#FFB6B6"/>
<path d="M85.5164 88.5074C85.5164 88.5074 83.4895 97.6283 81.1248 101.682L98.3533 111.816L111.866 103.033C111.866 103.033 105.447 92.5611 106.461 89.5208L85.5164 88.5074Z" fill="#FFB6B6"/>
<path d="M202.899 215.478L196.282 215.477L193.134 189.956L202.9 189.956L202.899 215.478Z" fill="#FFB6B6"/>
<path d="M180.228 215.328C180.022 215.675 179.914 216.795 179.914 217.198C179.914 218.439 180.919 219.444 182.159 219.444H202.651C203.497 219.444 204.183 218.758 204.183 217.912V217.059C204.183 217.059 205.196 214.495 203.109 211.335C203.109 211.335 200.515 213.809 196.64 209.933L195.497 207.863L187.223 213.914L182.637 214.478C181.634 214.602 180.745 214.459 180.228 215.328Z" fill="#2F2E41"/>
<path d="M223.351 215.478L216.734 215.477L213.587 189.956L223.352 189.956L223.351 215.478Z" fill="#FFB6B6"/>
<path d="M200.681 215.328C200.475 215.675 200.366 216.795 200.366 217.198C200.366 218.439 201.371 219.444 202.612 219.444H223.103C223.949 219.444 224.635 218.758 224.635 217.912V217.059C224.635 217.059 225.648 214.495 223.561 211.335C223.561 211.335 220.968 213.809 217.092 209.933L215.949 207.863L207.675 213.914L203.09 214.478C202.086 214.602 201.197 214.459 200.681 215.328Z" fill="#2F2E41"/>
<path d="M189.134 68.2494C189.134 68.2494 188.176 74.4178 189.286 78.3981L172.989 107.297L179.328 111.918L200.499 85.2807L203.433 72.1199L189.134 68.2494Z" fill="#FFB6B6"/>
<path d="M178.355 116.121C180.601 112.139 180.427 107.786 177.967 106.399C175.508 105.012 171.693 107.116 169.447 111.098C167.201 115.081 167.375 119.434 169.834 120.821C172.294 122.208 176.109 120.104 178.355 116.121Z" fill="#FFB6B6"/>
<path d="M195.491 97.652C195.491 97.652 187.699 103.151 190.378 111.358L188.186 139.045L193.056 196.021H203.545L205.23 155.115L212.048 129.305L212.932 196.021L225.927 195.777C225.927 195.777 226.657 162.419 225.683 160.471C224.709 158.524 225.683 160.086 225.683 160.086L233.718 121.021L232.501 94.2432L195.491 97.652Z" fill="#2F2E41"/>
<path d="M214.727 29.7197L200.605 35.0764L202.066 38.9722L190.378 47.7377L198.17 75.0082L193.787 99.3568L206.448 98.8698L233.719 96.435L230.797 66.7296L231.284 37.9983L220.57 34.1025L214.727 29.7197Z" fill="#DC2627"/>
<path d="M194.03 47.0073L190.377 47.7378C190.377 47.7378 188.673 48.9552 188.673 53.338C188.673 57.7207 188.673 60.6426 189.16 63.0774C189.16 63.0774 186.238 70.869 187.212 72.8169C188.186 74.7648 200.36 74.7648 200.36 74.7648L194.03 47.0073Z" fill="#DC2627"/>
<path d="M214.155 18.4195C214.155 24.5502 209.185 29.5201 203.054 29.5201C196.923 29.5201 191.953 24.5502 191.953 18.4195C191.953 12.2887 196.923 7.31879 203.054 7.31879C209.185 7.31879 214.155 12.2887 214.155 18.4195Z" fill="#FFB6B6"/>
<path d="M209.991 26.1492C209.991 26.1492 211.958 18.594 209.862 19.9262L206.61 19.6172L208.663 14.1245C208.663 14.1245 204.987 11.3688 203.522 12.9796C202.056 14.5904 202.407 15.4989 201.075 13.4034C199.743 11.3079 196.959 11.3476 194.41 12.8554C191.86 14.3632 189.868 14.6114 190.352 11.8135C190.837 9.01566 190.565 4.26148 192.079 4.80065C193.592 5.33981 193.177 5.64413 193.994 3.69034C194.81 1.73655 194.913 0.652527 196.802 1.48836C198.692 2.32419 203.44 -1.59985 205.402 0.774214C207.364 3.14828 209.078 3.5299 210.792 3.91152C212.505 4.29314 219.391 3.19738 218.815 13.862C218.815 13.862 223.411 23.0492 215.132 27.294C215.132 27.294 212.886 25.0768 211.317 27.7716L209.991 26.1492Z" fill="#2F2E41"/>
<path d="M103.422 49.9971L92.6121 50.3349L86.8693 57.429L80.4508 58.7803C80.4508 58.7803 78.424 77.6978 81.4643 84.4541C84.5046 91.2104 83.1533 93.2373 83.1533 93.2373L107.476 92.8995C107.476 92.8995 106.8 88.311 110.854 84.3557L112.887 76.8323C113.974 72.81 113.604 68.5328 111.842 64.7571L107.476 55.4022L103.76 54.0509L103.422 49.9971Z" fill="#2F2E41"/>
<path d="M83.1525 97.2908L81.6323 99.8244C81.6323 99.8244 76.9029 106.243 76.2273 124.485C75.5517 142.727 81.1256 201.755 81.1256 201.755H88.8394L97.1786 121.893L108.32 201.844L118.285 202.013L117.44 120.431C117.44 120.431 115.414 101.851 110.009 97.7976C110.009 97.7976 92.6112 113.506 83.1525 97.2908Z" fill="#2F2E41"/>
<path d="M69.0837 57.2758C69.0837 60.7829 68.8725 63.3925 65.0428 63.626C61.4458 63.8453 61.0018 60.7829 61.0018 57.2758C61.0018 53.7688 61.0855 50.9541 65.0428 50.9257C69.5481 50.8934 69.0837 53.7688 69.0837 57.2758Z" fill="#DC2627"/>
<path d="M91.597 57.2711C91.597 60.7781 92.5186 63.3877 87.556 63.6212C83.7383 63.8008 83.515 60.7781 83.515 57.2711C83.515 53.764 84.0759 51.3145 87.556 50.9209C90.8295 50.5508 91.597 53.764 91.597 57.2711Z" fill="#DC2627"/>
<path d="M88.1344 54.3846H65.6203V59.5802H88.1344V54.3846Z" fill="#DC2627"/>
<path d="M107.932 56.2618C107.932 59.7689 107.721 62.3785 103.891 62.612C100.294 62.8313 99.8504 59.7689 99.8504 56.2618C99.8504 52.7548 99.9342 49.9401 103.891 49.9117C108.397 49.8794 107.932 52.7548 107.932 56.2618Z" fill="#DC2627"/>
<path d="M130.446 56.2573C130.446 59.7644 131.367 62.3739 126.405 62.6074C122.587 62.7871 122.364 59.7644 122.364 56.2573C122.364 52.7502 122.924 50.3007 126.405 49.9072C129.678 49.537 130.446 52.7502 130.446 56.2573Z" fill="#DC2627"/>
<path d="M126.983 53.3708H104.469V58.5663H126.983V53.3708Z" fill="#DC2627"/>
<path d="M166.712 111.663C166.712 115.17 166.501 117.78 162.671 118.013C159.074 118.233 158.63 115.17 158.63 111.663C158.63 108.156 158.714 105.341 162.671 105.313C167.177 105.281 166.712 108.156 166.712 111.663Z" fill="#DC2627"/>
<path d="M189.226 111.658C189.226 115.165 190.147 117.775 185.185 118.008C181.367 118.188 181.144 115.165 181.144 111.658C181.144 108.151 181.704 105.702 185.185 105.308C188.458 104.938 189.226 108.151 189.226 111.658Z" fill="#DC2627"/>
<path d="M185.763 108.772H163.249V113.967H185.763V108.772Z" fill="#DC2627"/>
<path d="M115.897 64.2369C118.321 64.2369 120.286 61.0554 120.286 57.1309C120.286 53.2063 118.321 50.0248 115.897 50.0248C113.473 50.0248 111.508 53.2063 111.508 57.1309C111.508 61.0554 113.473 64.2369 115.897 64.2369Z" fill="#FFB6B6"/>
<path d="M95.1442 45.9427C101.767 45.9427 107.137 40.5735 107.137 33.9503C107.137 27.3271 101.767 21.9579 95.1442 21.9579C88.521 21.9579 83.1519 27.3271 83.1519 33.9503C83.1519 40.5735 88.521 45.9427 95.1442 45.9427Z" fill="#FFB6B6"/>
<path d="M92.7373 37.7191L95.512 33.3035L96.7616 27.2983C96.7616 27.2983 109.402 30.3812 106.01 24.2153C102.619 18.0494 93.9869 16.508 88.1293 21.1324L85.6047 23.5987C85.6047 23.5987 91.2123 18.3577 87.821 16.5079C84.4298 14.6582 85.0464 13.425 83.1966 14.9665C81.3468 16.5079 82.2717 17.7411 80.1137 16.8162C77.9556 15.8914 73.3312 14.6582 73.9478 16.1997C74.5643 17.7411 69.9132 21.749 71.6222 23.5987C73.3312 25.4485 71.7897 29.1481 74.8726 28.2232C77.9556 27.2983 76.4141 31.9227 79.1888 30.0729C79.1888 30.0729 76.9114 32.9752 78.7611 35.1332C80.6109 37.2913 83.461 38.1309 83.1527 41.2139C82.8444 44.2968 90.2468 44.9298 90.2468 44.9298L89.6708 35.9305C89.6708 35.9305 91.5042 34.4274 92.7373 37.7191Z" fill="#2F2E41"/>
<path d="M214.831 58.4128C214.831 58.4128 213.063 64.3996 213.635 68.4919L193.648 94.9736L199.319 100.394L223.836 76.8013L228.49 64.146L214.831 58.4128Z" fill="#FFB6B6"/>
<path d="M197.798 104.432C200.552 100.782 200.958 96.4447 198.704 94.7435C196.45 93.0423 192.39 94.6216 189.635 98.271C186.881 101.92 186.476 106.258 188.73 107.959C190.984 109.66 195.044 108.081 197.798 104.432Z" fill="#FFB6B6"/>
<path d="M229.316 36.3981C229.316 36.3981 235.543 38.657 234.751 42.94C233.959 47.223 233.658 50.0465 233.658 50.0465C233.658 50.0465 234.333 52.3861 233.452 53.5521C232.572 54.7182 228.054 68.3908 228.054 68.3908L211.803 62.8366C211.803 62.8366 221.33 36.4714 229.316 36.3981Z" fill="#DC2627"/>
<path d="M81.6144 57.4526C81.6144 61.3772 79.6494 64.5587 77.2253 64.5587C74.8013 64.5587 72.8363 61.3772 72.8363 57.4526C72.8363 53.528 74.8013 50.3465 77.2253 50.3465C79.6494 50.3465 81.6144 53.528 81.6144 57.4526Z" fill="#FFB6B6"/>
</svg>
