<svg width="280" height="199" viewBox="0 0 280 199" fill="none" xmlns="http://www.w3.org/2000/svg">
<g clip-path="url(#clip0_33_1495)">
<path d="M149.088 87.3453L147.743 89.4265L165.693 101.021L167.038 98.94L149.088 87.3453Z" fill="#2F2E41"/>
<path d="M167.927 100.989C170.154 97.5404 171.261 94.2937 170.399 93.7369C169.537 93.1801 167.033 95.524 164.805 98.9722C162.578 102.42 161.471 105.667 162.333 106.224C163.195 106.781 165.7 104.437 167.927 100.989Z" fill="#2F2E41"/>
<path d="M149.976 89.3943C152.204 85.9461 153.311 82.6994 152.448 82.1426C151.586 81.5857 149.082 83.9296 146.855 87.3778C144.627 90.826 143.521 94.0727 144.383 94.6296C145.245 95.1864 147.749 92.8425 149.976 89.3943Z" fill="#2F2E41"/>
<path d="M208.482 198.032C247.98 198.032 280 195.59 280 192.577C280 189.565 247.98 187.123 208.482 187.123C168.984 187.123 136.964 189.565 136.964 192.577C136.964 195.59 168.984 198.032 208.482 198.032Z" fill="#E6E6E6"/>
<path d="M71.518 171.888C111.016 171.888 143.036 169.446 143.036 166.433C143.036 163.421 111.016 160.978 71.518 160.978C32.0197 160.978 0 163.421 0 166.433C0 169.446 32.0197 171.888 71.518 171.888Z" fill="#E6E6E6"/>
<path d="M267.311 166.421C267.077 175.185 265.609 183.872 262.951 192.226C262.89 192.42 262.826 192.611 262.763 192.805H246.49C246.507 192.631 246.524 192.437 246.542 192.226C247.627 179.752 253.883 103.831 246.403 90.8478C247.057 91.901 268.573 126.786 267.311 166.421Z" fill="#E6E6E6"/>
<path d="M266.09 192.226C265.954 192.42 265.813 192.614 265.668 192.805H253.46C253.553 192.64 253.66 192.446 253.784 192.226C255.801 188.586 261.77 177.703 267.312 166.421C273.266 154.297 278.73 141.713 278.269 137.159C278.411 138.186 282.532 169.5 266.09 192.226Z" fill="#E6E6E6"/>
<path d="M152.004 179.413C152.123 183.861 152.868 188.271 154.217 192.511C154.248 192.61 154.28 192.706 154.312 192.805H162.573C162.564 192.717 162.555 192.618 162.546 192.511C161.995 186.179 158.82 147.643 162.617 141.053C162.285 141.588 151.363 159.295 152.004 179.413Z" fill="#E6E6E6"/>
<path d="M152.623 192.511C152.692 192.61 152.764 192.708 152.838 192.805H159.034C158.987 192.721 158.933 192.623 158.87 192.511C157.846 190.663 154.816 185.14 152.004 179.413C148.981 173.259 146.208 166.872 146.442 164.56C146.37 165.081 144.278 180.976 152.623 192.511Z" fill="#E6E6E6"/>
<path d="M162.546 83.0938C162.546 83.0938 148.747 96.6174 154.543 98.2734C160.338 99.9293 166.962 85.8537 166.962 85.8537L162.546 83.0938Z" fill="#A0616A"/>
<path d="M176.346 128.632L174.69 136.36L187.11 136.912L185.178 128.632H176.346Z" fill="#A0616A"/>
<path d="M215.537 176.379L213.881 184.107L226.301 184.659L224.369 176.379H215.537Z" fill="#A0616A"/>
<path d="M193.734 77.0219L194.838 81.4377C194.838 81.4377 164.202 75.3659 165.858 90.8215C167.514 106.277 174.69 121.181 174.69 121.181C174.69 121.181 174.138 126.149 175.242 126.977C176.346 127.805 175.242 130.565 175.242 130.565C175.242 130.565 185.454 131.945 185.73 129.461C185.878 127.8 185.785 126.127 185.454 124.493C185.454 124.493 186.006 124.493 185.454 121.733C184.902 118.973 182.672 96.7147 181.016 93.6787C181.016 93.6787 195.666 104.897 203.393 103.517C203.393 103.517 202.289 114.557 206.705 129.185C211.121 143.812 211.121 145.468 211.121 145.468C211.121 145.468 216.365 173.343 214.985 176.655L214.709 178.035H224.921C224.921 178.035 224.093 163.408 224.921 161.476C225.749 159.544 225.749 142.984 221.057 134.704C217.734 128.841 218.353 111.84 220.171 105.12C221.697 99.4768 222.082 95.1335 221.188 89.3565C220.231 83.1786 217.374 79.9492 213.881 77.0219H193.734Z" fill="#2F2E41"/>
<path d="M201.876 35.4849C207.363 35.4849 211.811 31.0365 211.811 25.5492C211.811 20.0618 207.363 15.6134 201.876 15.6134C196.388 15.6134 191.94 20.0618 191.94 25.5492C191.94 31.0365 196.388 35.4849 201.876 35.4849Z" fill="#A0616A"/>
<path d="M199.254 32.5869C199.254 32.5869 202.29 41.4187 202.014 43.0747C201.738 44.7306 210.845 39.7627 210.845 39.7627C210.845 39.7627 207.257 30.931 208.361 28.447L199.254 32.5869Z" fill="#A0616A"/>
<path d="M210.293 36.7268L200.633 40.5907L201.185 43.9026C201.185 43.9026 200.357 45.0066 200.633 45.5586C200.909 46.1106 197.045 48.3185 197.597 49.1465C198.149 49.9745 194.285 53.2864 194.561 54.1144C194.837 54.9424 185.73 59.9103 190.697 69.57C190.697 69.57 193.273 72.9184 192.95 76.8782C192.939 77.0173 192.924 77.1572 192.905 77.2978C192.353 81.4377 213.881 76.7459 213.881 76.7459V72.054C213.881 72.054 215.813 71.226 215.537 67.6381C215.261 64.0501 213.605 65.7061 215.537 63.7742C217.469 61.8422 217.469 62.1182 217.193 60.4622C217.083 59.801 217.06 57.4233 217.073 54.8054C217.099 49.2742 215.297 43.8893 211.949 39.4868L210.293 36.7268Z" fill="#DC2627"/>
<path d="M205.05 43.9027L187.11 62.6703L160.891 83.3698L166.686 88.0616L214.985 55.7704C214.985 55.7704 219.125 38.1069 205.05 43.9027Z" fill="#DC2627"/>
<path d="M177.174 132.773C177.174 132.773 175.242 129.461 173.862 130.565L164.202 138.292C164.202 138.292 147.091 143.26 163.65 147.124C163.65 147.124 172.758 148.504 174.69 147.124C176.622 145.744 179.658 146.02 180.486 146.572C181.314 147.124 191.802 146.296 191.802 144.088C191.802 141.88 186.017 132.231 186.017 132.231C186.017 132.231 182.694 136.085 177.174 132.773Z" fill="#2F2E41"/>
<path d="M216.365 180.519C216.365 180.519 214.433 177.207 213.053 178.311L203.394 186.039C203.394 186.039 186.282 191.007 202.842 194.871C202.842 194.871 211.949 196.251 213.881 194.871C215.813 193.491 218.849 193.767 219.677 194.319C220.505 194.871 230.993 194.043 230.993 191.835C230.993 189.627 225.209 179.977 225.209 179.977C225.209 179.977 221.885 183.831 216.365 180.519Z" fill="#2F2E41"/>
<path d="M189.968 21.6088C189.968 21.6088 191.648 6.84131 206.016 11.0343C206.016 11.0343 216.181 8.96678 219.771 21.6618L223.415 34.9717L221.747 34.1049L221.009 35.8019L218.348 36.5307L217.159 34.2807L216.658 37.0504L198.275 40.7671C198.275 40.7671 204.492 33.6636 204.448 23.2598L202.617 25.2709L189.968 21.6088Z" fill="#2F2E41"/>
<path d="M91.2408 9.60083H68.2589V38.2598H91.2408V9.60083Z" fill="#2F2E41"/>
<path d="M49.2811 143.284L46.1473 154.818L51.3707 158.662L52.7633 157.614L55.2009 145.731L49.2811 143.284Z" fill="#FFB8B8"/>
<path d="M88.6292 142.236L87.5846 156.216H94.2007V143.284L88.6292 142.236Z" fill="#FFB8B8"/>
<path d="M67.7364 53.8125V62.2006L80.6205 64.2974L91.763 59.7541L89.6738 54.5113L67.7364 53.8125Z" fill="#FFB8B8"/>
<path d="M78.1828 60.8026L67.04 58.7056L64.2543 81.423L57.2901 109.732C57.2901 109.732 46.8438 133.848 48.2366 139.44L48.9331 141.187L48.2366 144.333L55.2008 147.129L57.9865 142.585C57.9865 142.585 60.0758 145.731 63.5579 139.09C67.04 132.45 81.6649 91.209 81.6649 91.209L84.1024 98.199C83.4718 100.355 83.3526 102.629 83.7542 104.84C84.4506 108.334 85.147 119.169 85.147 119.169C85.147 119.169 81.3167 138.042 86.5398 139.44L87.5845 143.634L94.8969 144.333L96.2897 140.139C96.2897 140.139 103.254 137.692 101.513 125.46C99.7718 113.227 99.0754 73.035 99.0754 73.035L92.2155 56.0583L78.1828 60.8026Z" fill="#2F2E41"/>
<path d="M48.2369 154.119C48.2369 154.119 46.4958 152.721 45.7994 153.07C45.103 153.42 37.7905 162.856 37.7905 162.856C37.7905 162.856 30.1298 168.798 35.7012 169.497C41.2726 170.196 56.5939 162.507 56.5939 160.759C56.5939 159.012 53.3746 154.635 53.3746 154.635C53.3746 154.635 51.0226 156.565 48.2369 154.119Z" fill="#2F2E41"/>
<path d="M86.8881 153.07C86.8881 153.07 93.1559 152.68 94.2006 153.749C95.2452 154.818 94.897 160.06 94.897 160.06C94.897 160.06 95.5934 169.497 90.022 169.497C84.4506 169.497 85.8435 163.206 85.8435 163.206L86.8881 153.07Z" fill="#2F2E41"/>
<path d="M80.6203 23.0565C85.4281 23.0565 89.3256 19.1446 89.3256 14.319C89.3256 9.49345 85.4281 5.58154 80.6203 5.58154C75.8125 5.58154 71.915 9.49345 71.915 14.319C71.915 19.1446 75.8125 23.0565 80.6203 23.0565Z" fill="#FFB8B8"/>
<path d="M74.8748 19.7363C74.8748 19.7363 79.7498 25.6778 69.9999 30.2213C60.25 34.7648 76.9641 53.6378 76.9641 53.6378C76.9641 53.6378 96.4639 46.2983 94.7229 31.9688C94.7229 31.9688 82.8837 29.8718 85.6694 20.0858L74.8748 19.7363Z" fill="#FFB8B8"/>
<path d="M69.6517 29.8718C69.6517 29.8718 61.6429 28.8233 61.2946 35.4638C60.9464 42.1043 61.2946 58.1813 61.2946 58.1813C61.2946 58.1813 57.8125 72.1612 59.5536 84.3937C59.5536 84.3937 57.4643 98.7232 63.0357 98.0242C68.6071 97.3252 64.4285 83.3452 64.4285 83.3452L66.866 60.6278L65.8214 43.8518L70.3481 33.7163L69.6517 29.8718Z" fill="#FFB8B8"/>
<path d="M92.701 31.4158C92.701 31.4158 100.294 31.2697 100.642 36.8617C100.991 42.4537 98.205 59.5792 98.205 59.5792L94.0265 61.6762L90.1961 49.7932L92.701 31.4158Z" fill="#FFB8B8"/>
<path d="M94.897 60.1035L94.2005 61.851L96.2898 67.0935C96.2898 67.0935 87.9327 73.734 88.6291 75.1319C89.3255 76.5299 93.1559 73.3844 93.1559 73.3844L98.7273 76.1804C98.7273 76.1804 103.254 71.2874 101.165 66.744C100.007 64.3014 99.0391 61.7736 98.2685 59.1829C98.2685 59.1829 95.2452 59.055 94.897 60.1035Z" fill="#FFB8B8"/>
<path d="M68.0848 28.6486L67.0401 40.1821C67.0401 40.1821 62.1652 45.0751 67.7366 51.7155L67.0401 56.958C67.0401 56.958 79.9239 56.259 82.3614 56.958C84.7989 57.657 92.3266 56.3953 92.3266 56.3953L92.4595 52.4145C92.4595 52.4145 95.9416 47.5215 94.897 40.1821C93.8524 32.8426 94.897 30.3961 94.897 30.3961L92.4595 30.0466C92.4595 30.0466 90.8926 40.7063 80.098 41.7548C80.098 41.7548 66.6919 42.978 70.5222 28.6486L68.0848 28.6486Z" fill="#E6E6E6"/>
<path d="M81.4909 0.164302C81.4909 0.164302 72.4374 -0.39903 70.3481 5.2517C68.2589 10.9024 64.6027 13.869 64.6027 13.869C64.6027 13.869 58.8432 17.8873 61.7229 25.0605C61.7229 25.0605 52.7635 31.1036 58.6831 36.4718C58.6831 36.4718 58.3349 41.84 61.817 45.5129C61.817 45.5129 64.6027 46.9256 63.558 47.7732C62.5134 48.6208 70.5223 48.0558 69.8258 40.4273C69.1294 32.7988 73.8303 27.4253 73.8303 27.4253C73.8303 27.4253 69.3035 17.5347 71.3928 14.1443C72.6613 12.0858 73.206 10.5508 74.259 9.66236C74.8456 9.17924 75.3895 8.6465 75.8846 8.07004C76.3516 7.47624 76.9874 7.03767 77.7084 6.812C78.4293 6.58632 79.2017 6.5841 79.9239 6.80562C83.0578 7.65323 83.7543 10.196 83.7543 10.196C83.7543 10.196 86.0176 16.2705 89.8479 19.0959C93.6783 21.9212 86.8882 26.8656 86.8882 26.8656C86.8882 26.8656 88.0684 32.6869 91.1345 36.1333C94.2006 39.5797 90.2509 42.5838 90.0221 42.9701C89.4997 43.8518 87.4138 49.4191 96.0304 49.4437C96.0304 49.4437 98.0309 45.2304 100.817 42.6876C103.602 40.1448 101.513 32.7988 101.513 32.7988C101.513 32.7988 105.692 30.256 101.165 24.0403C101.165 24.0403 102.558 18.3896 98.7274 14.7166C98.7274 14.7166 93.3301 -1.81344 81.4909 0.164302Z" fill="#2F2E41"/>
<path d="M71.2187 15.5423C71.6994 15.5423 72.0892 14.9164 72.0892 14.1443C72.0892 13.3722 71.6994 12.7463 71.2187 12.7463C70.7379 12.7463 70.3481 13.3722 70.3481 14.1443C70.3481 14.9164 70.7379 15.5423 71.2187 15.5423Z" fill="#FFB8B8"/>
<path d="M29.6394 158.306H8.2702V160.784H29.6394V158.306Z" fill="#2F2E41"/>
<path d="M29.6394 166.978C30.6657 166.978 31.4976 163.65 31.4976 159.545C31.4976 155.44 30.6657 152.112 29.6394 152.112C28.6132 152.112 27.7812 155.44 27.7812 159.545C27.7812 163.65 28.6132 166.978 29.6394 166.978Z" fill="#2F2E41"/>
<path d="M8.2703 166.978C9.29656 166.978 10.1285 163.65 10.1285 159.545C10.1285 155.44 9.29656 152.112 8.2703 152.112C7.24405 152.112 6.41211 155.44 6.41211 159.545C6.41211 163.65 7.24405 166.978 8.2703 166.978Z" fill="#2F2E41"/>
<path d="M24.5666 158.306H3.19739V160.784H24.5666V158.306Z" fill="#2F2E41"/>
<path d="M24.5666 166.978C25.5929 166.978 26.4248 163.65 26.4248 159.545C26.4248 155.44 25.5929 152.112 24.5666 152.112C23.5404 152.112 22.7084 155.44 22.7084 159.545C22.7084 163.65 23.5404 166.978 24.5666 166.978Z" fill="#2F2E41"/>
<path d="M3.19737 166.978C4.22362 166.978 5.05556 163.65 5.05556 159.545C5.05556 155.44 4.22362 152.112 3.19737 152.112C2.17111 152.112 1.33917 155.44 1.33917 159.545C1.33917 163.65 2.17111 166.978 3.19737 166.978Z" fill="#2F2E41"/>
<path d="M267.668 183.28H246.299V185.757H267.668V183.28Z" fill="#2F2E41"/>
<path d="M267.668 191.951C268.694 191.951 269.526 188.624 269.526 184.519C269.526 180.414 268.694 177.086 267.668 177.086C266.642 177.086 265.81 180.414 265.81 184.519C265.81 188.624 266.642 191.951 267.668 191.951Z" fill="#2F2E41"/>
<path d="M246.299 191.951C247.325 191.951 248.157 188.624 248.157 184.519C248.157 180.414 247.325 177.086 246.299 177.086C245.273 177.086 244.441 180.414 244.441 184.519C244.441 188.624 245.273 191.951 246.299 191.951Z" fill="#2F2E41"/>
</g>
<defs>
<clipPath id="clip0_33_1495">
<rect width="280" height="198.032" fill="white"/>
</clipPath>
</defs>
</svg>
