<svg width="176" height="199" viewBox="0 0 176 199" fill="none" xmlns="http://www.w3.org/2000/svg">
<g clip-path="url(#clip0_33_1626)">
<path d="M125.389 6.37521C127.112 6.33173 128.683 7.55608 129.478 9.08559C130.273 10.6151 130.417 12.3985 130.377 14.1219C130.337 15.8452 130.129 17.5713 130.281 19.2885C130.604 22.9415 132.649 26.4052 135.691 28.4531C134.544 28.542 133.419 28.0109 132.553 27.2544C131.686 26.498 131.038 25.5288 130.4 24.5719C129.86 23.7621 129.318 22.9469 128.93 22.0541C128.362 20.7462 128.147 19.3172 127.942 17.9061C127.44 14.4318 126.977 10.9518 126.553 7.46705" fill="#2F2E41"/>
<path d="M96.1934 193.755L102.009 193.755L104.775 171.323L96.1923 171.324L96.1934 193.755Z" fill="#FFB6B6"/>
<path d="M116.118 193.623C116.299 193.928 116.395 194.913 116.395 195.267C116.395 196.357 115.511 197.241 114.421 197.241H96.411C95.6673 197.241 95.0644 196.638 95.0644 195.895V195.145C95.0644 195.145 94.1735 192.891 96.0078 190.114C96.0078 190.114 98.2875 192.289 101.694 188.882L102.699 187.062L109.97 192.38L114.001 192.876C114.883 192.985 115.665 192.86 116.118 193.623Z" fill="#2F2E41"/>
<path d="M121.291 189.521L126.944 190.885L134.896 169.728L126.552 167.715L121.291 189.521Z" fill="#FFB6B6"/>
<path d="M140.69 194.067C140.795 194.406 140.656 195.385 140.573 195.73C140.317 196.79 139.251 197.441 138.191 197.186L120.684 192.96C119.961 192.786 119.517 192.058 119.691 191.335L119.867 190.606C119.867 190.606 119.53 188.207 121.965 185.937C121.965 185.937 123.67 188.586 127.781 186.074L129.185 184.541L135.006 191.416L138.807 192.844C139.639 193.157 140.428 193.218 140.69 194.067Z" fill="#2F2E41"/>
<path d="M155.016 81.7913C153.933 80.9125 153.138 79.8618 152.693 78.826L141.842 71.1059L145.666 66.0499L156.262 74.4255C157.367 74.6468 158.56 75.208 159.643 76.0869C162.119 78.0946 163.09 80.9991 161.812 82.5744C160.534 84.1496 157.492 83.799 155.016 81.7913Z" fill="#FFB6B6"/>
<path d="M153.015 70.4209L152.508 71.4576L149.879 76.8234L149.102 78.4069L141.455 71.5402L135.306 66.0207L120.852 53.0449C119.849 52.1449 119.359 50.9231 119.359 49.707C119.359 48.2516 120.06 46.8077 121.413 45.9305C122.25 45.3865 123.244 45.1387 124.238 45.2242C126.585 45.4264 131.313 45.8593 136.328 46.4574L138.054 51.4529L137.208 55.9414L134.907 55.2607L137.003 57.018L153.015 70.4209Z" fill="#DC2627"/>
<path d="M107.295 65.1242C108.409 65.1308 110.746 80.2258 109.003 82.4973C107.574 84.3607 133.773 82.4973 133.773 82.4973C131.31 81.9964 132.418 65.8697 135.064 65.1242L119.256 60.2825L107.295 65.1242Z" fill="#FFB6B6"/>
<path d="M132.609 80.4609H109.318C109.318 80.4609 99.6047 95.8833 99.6047 125.788L95.6174 173.92L105.586 174.49L121.647 109.243L130.473 141.275L124.383 175.449H134.035L145.461 136.915L143.18 116.674C143.18 116.674 140.801 88.86 132.609 80.4609Z" fill="#2F2E41"/>
<path d="M138.054 51.4529L137.208 55.9414L137.003 57.018L135.306 66.0207L133.004 69.4074C133.004 69.4074 116.613 64.326 108.923 70.5917L102.738 50.5984L109.289 36.3581L114.415 33.5101L115.27 30.0924H126.129L127.801 33.5101L132.643 35.7885L136.328 46.4573L138.054 51.4529Z" fill="#DC2627"/>
<path d="M134.757 35.1966C133.869 36.2731 132.812 37.0599 131.773 37.4963L123.966 48.2854L118.941 44.4205L127.401 33.8921C127.631 32.7887 128.202 31.601 129.089 30.5245C131.117 28.0652 134.029 27.1175 135.594 28.4077C137.159 29.6978 136.784 32.7374 134.757 35.1966Z" fill="#FFB6B6"/>
<path d="M113.712 36.5384C113.712 36.5384 105.444 31.9932 102.76 36.5384C100.47 40.4165 98.4794 60.0113 97.9444 65.6804C97.8505 66.6755 98.0907 67.6704 98.6273 68.5136C100.216 71.0108 103.744 71.3164 105.739 69.1297L131.325 41.0837L123.37 37.1066L109.735 51.3105L113.712 36.5384Z" fill="#DC2627"/>
<path d="M119.385 27.9193C125.126 27.9193 129.781 23.2651 129.781 17.5239C129.781 11.7827 125.126 7.12848 119.385 7.12848C113.644 7.12848 108.99 11.7827 108.99 17.5239C108.99 23.2651 113.644 27.9193 119.385 27.9193Z" fill="#FFB6B6"/>
<path d="M127.39 11.9055C125.769 12.9998 124.733 14.8336 124.469 17.5664C123.451 16.758 123.3 15.2873 123.687 13.4056C122.979 15.3316 117.233 25.1342 116.854 28.2331C116.613 30.2069 117.403 32.1966 118.615 33.7717C119.748 35.2402 121.224 36.393 122.736 37.4746C119.894 36.4364 117.525 34.1507 116.4 31.3399C114.774 27.2817 115.741 22.7655 117.02 18.5139C116.72 19.0784 116.289 20.1088 115.792 20.5114C115.153 21.0286 114.395 20.8667 113.881 21.5102C113.258 22.2918 113.139 23.3853 113.333 24.3683C113.53 25.3513 114.004 26.2513 114.47 27.1356C107.879 25.8964 105.919 18.3637 108.931 13.2319C107.004 16.6901 106.586 23.6538 109.038 26.7567C110.411 28.4976 112.401 29.8556 113.088 31.9637C113.569 33.4441 113.305 35.0942 112.642 36.5035C111.979 37.9128 110.94 39.1129 109.843 40.2183C109.393 40.6723 108.931 41.1105 108.449 41.5368C107.917 40.9948 107.014 41.2512 106.817 41.9849C106.708 42.3926 106.536 42.8128 106.318 43.2422C104.367 43.6849 101.733 43.0704 101.332 45.8121C101.224 46.5434 99.9026 46.2188 99.1683 46.3372C99.3661 45.7867 98.7273 45.2995 98.2602 45.6516C97.6499 46.1118 97 46.3814 96.3181 46.4951C94.5811 46.4003 92.8796 45.9582 91.3716 45.0976C96.1799 42.1013 100.398 42.966 102.277 37.6208C102.572 36.7846 102.666 35.0406 102.661 33.0787C102.649 28.6305 101.603 24.2641 99.8017 20.1971C99.5819 19.7009 99.4144 19.2215 99.342 18.8021C98.817 15.7742 99.6341 11.6133 100.961 9.65529C102.287 7.70118 104.581 6.43792 106.945 6.37476C108.126 6.33922 108.828 6.85637 109.87 6.29975C110.984 5.70365 111.244 6.48528 111.998 5.47468C113.344 3.67058 115.638 2.73893 117.888 2.65997C120.138 2.58102 121.398 1.95316 123.443 2.89667C124.734 3.49278 126.22 6.83212 127.643 6.85245C130.588 6.89457 131.153 9.36505 127.39 11.9055Z" fill="#2F2E41"/>
<path d="M123.064 37.7075C122.953 37.6286 122.847 37.5536 122.736 37.4746C122.823 37.5102 122.91 37.5417 122.997 37.5694L123.064 37.7075Z" fill="#2F2E41"/>
<path d="M173.754 79.965C172.113 78.0283 169.717 76.9175 167.178 76.9175H157.201C154.58 76.9175 152.133 78.0887 150.489 80.1307C148.845 82.1727 148.223 84.8128 148.782 87.3742L150.959 97.3437C150.425 98.7133 150.128 100.202 150.128 101.761C150.128 108.476 155.572 113.92 162.288 113.92C169.003 113.92 174.447 108.476 174.447 101.761C174.447 100.438 174.233 99.1651 173.842 97.9726L175.679 86.9523C176.096 84.4485 175.395 81.9017 173.754 79.965ZM162.288 89.6011C158.75 89.6011 155.566 91.1132 153.344 93.5251L151.854 86.7033C151.499 85.0766 151.894 83.3997 152.938 82.1029C153.983 80.806 155.536 80.0622 157.201 80.0622H167.178C168.79 80.0622 170.313 80.7676 171.355 81.9976C172.397 83.2277 172.842 84.8452 172.577 86.4353L171.37 93.679C169.143 91.1779 165.9 89.6011 162.288 89.6011Z" fill="#3F3D56"/>
<path d="M61.5118 170.939C60.2253 169.421 58.346 168.55 56.3556 168.55H48.5322C46.4765 168.55 44.5579 169.468 43.2686 171.069C41.9793 172.671 41.4914 174.741 41.93 176.749L43.6373 184.567C43.2182 185.641 42.9857 186.808 42.9857 188.03C42.9857 193.296 47.2546 197.565 52.5206 197.565C57.7865 197.565 62.0554 193.296 62.0554 188.03C62.0554 186.993 61.8875 185.995 61.5811 185.06L63.0214 176.418C63.3486 174.455 62.7984 172.458 61.5118 170.939ZM52.5206 178.496C49.7463 178.496 47.2498 179.681 45.5074 181.572L44.3391 176.223C44.0606 174.948 44.3705 173.633 45.1893 172.616C46.0082 171.599 47.2266 171.016 48.5322 171.016H56.3556C57.6197 171.016 58.8133 171.569 59.6304 172.533C60.4474 173.498 60.7969 174.766 60.589 176.013L59.6424 181.693C57.896 179.732 55.3532 178.496 52.5206 178.496Z" fill="#3F3D56"/>
<path d="M110.887 7.42716L110.133 7.19354C110.245 4.54798 110.961 2.13947 112.36 0L113.114 0.233624L110.887 7.42716Z" fill="#DC2627"/>
<path d="M110.891 6.50155L110.407 7.12483L104.46 2.50463L104.945 1.88135C107.57 2.80813 109.486 4.41148 110.891 6.50155Z" fill="#DC2627"/>
<path d="M145.301 191.187C146.116 191.239 146.567 190.225 145.95 189.635L145.889 189.391C145.897 189.371 145.905 189.352 145.913 189.332C146.738 187.365 149.533 187.379 150.351 189.349C151.077 191.097 152.001 192.848 152.228 194.696C152.33 195.512 152.284 196.343 152.103 197.144C153.804 193.429 154.699 189.372 154.699 185.293C154.699 184.268 154.643 183.243 154.528 182.22C154.434 181.384 154.304 180.553 154.135 179.729C153.225 175.277 151.254 171.037 148.411 167.495C147.045 166.748 145.905 165.58 145.216 164.181C144.969 163.676 144.775 163.133 144.684 162.579C144.839 162.6 145.27 160.231 145.153 160.086C145.369 159.757 145.757 159.593 145.994 159.272C147.171 157.676 148.794 157.955 149.64 160.124C151.449 161.037 151.467 162.551 150.357 164.007C149.651 164.934 149.554 166.187 148.934 167.179C148.998 167.261 149.064 167.34 149.128 167.421C150.297 168.921 151.308 170.532 152.16 172.225C151.919 170.344 152.275 168.077 152.881 166.616C153.571 164.951 154.865 163.549 156.004 162.109C157.372 160.381 160.178 161.135 160.419 163.327C160.421 163.348 160.424 163.369 160.426 163.39C160.257 163.486 160.091 163.587 159.929 163.694C159.005 164.305 159.325 165.737 160.419 165.906L160.444 165.909C160.382 166.519 160.278 167.123 160.125 167.717C161.586 173.369 158.431 175.427 153.926 175.519C153.827 175.57 153.73 175.621 153.631 175.67C154.087 176.955 154.452 178.273 154.722 179.609C154.964 180.79 155.132 181.983 155.227 183.181C155.344 184.693 155.334 186.213 155.206 187.723L155.214 187.669C155.538 186.007 156.44 184.454 157.751 183.378C159.703 181.774 162.462 181.183 164.568 179.894C165.582 179.274 166.881 180.076 166.704 181.251L166.696 181.307C166.382 181.435 166.076 181.583 165.78 181.748C165.611 181.844 165.445 181.945 165.283 182.052C164.36 182.663 164.679 184.095 165.773 184.264L165.798 184.268C165.816 184.27 165.831 184.273 165.849 184.275C165.311 185.553 164.561 186.738 163.623 187.761C162.709 192.694 158.785 193.162 154.587 191.726H154.584C154.125 193.725 153.455 195.678 152.593 197.539H145.479C145.454 197.46 145.431 197.378 145.408 197.299C146.066 197.34 146.728 197.302 147.376 197.182C146.848 196.534 146.321 195.882 145.793 195.234C145.78 195.221 145.77 195.209 145.76 195.196C145.492 194.864 145.222 194.535 144.954 194.204L144.954 194.204C144.937 193.186 145.059 192.172 145.301 191.187Z" fill="#F2F2F2"/>
</g>
<defs>
<clipPath id="clip0_33_1626">
<rect width="175.594" height="198.03" fill="white" transform="translate(0.20311)"/>
</clipPath>
</defs>
</svg>
