<svg width="280" height="182" viewBox="0 0 280 182" fill="none" xmlns="http://www.w3.org/2000/svg">
<g clip-path="url(#clip0_33_1570)">
<path d="M214.516 172.116L229.094 150.438L214.546 174.448L214.577 176.888C213.512 176.896 212.459 176.878 211.415 176.834L212.138 145.478L212.118 145.236L212.145 145.19L212.214 142.227L196.25 119.049L212.195 140.009L212.252 140.635L212.798 116.945L199.009 92.9145L212.837 112.783L212.693 63.7019L212.693 63.5386L212.698 63.6992L213.613 102.382L226.18 86.6689L213.654 105.714L213.929 126.905L225.493 106.223L213.971 130.02L214.124 141.803L230.941 112.994L214.175 145.914L214.516 172.116Z" fill="#E6E6E6"/>
<path d="M263.576 172.799L278.153 151.121L263.605 175.131L263.636 177.57C262.572 177.578 261.518 177.561 260.474 177.517L261.197 146.161L261.177 145.919L261.204 145.873L261.273 142.91L245.309 119.732L261.254 140.692L261.311 141.318L261.857 117.628L248.068 93.5974L261.896 113.466L261.752 64.3848L261.752 64.2214L261.757 64.3821L262.672 103.065L275.239 87.3517L262.713 106.397L262.988 127.588L274.552 106.906L263.03 130.703L263.183 142.486L280 113.677L263.234 146.597L263.576 172.799Z" fill="#E6E6E6"/>
<path d="M116.1 0H28.8676V117.993H116.1V0Z" fill="#E6E6E6"/>
<path d="M113.027 4.15784H31.9415V113.835H113.027V4.15784Z" fill="white"/>
<path d="M102.369 23.395H42.8594C42.3773 23.3943 41.9153 23.2024 41.5746 22.8613C41.234 22.5203 41.0427 22.0579 41.0427 21.5759C41.0427 21.0939 41.234 20.6315 41.5746 20.2905C41.9153 19.9494 42.3773 19.7575 42.8594 19.7568H102.369C102.608 19.7565 102.844 19.8033 103.065 19.8946C103.286 19.9859 103.487 20.1198 103.656 20.2888C103.826 20.4577 103.96 20.6584 104.051 20.8792C104.143 21.1001 104.19 21.3368 104.19 21.5759C104.19 21.815 104.143 22.0517 104.051 22.2726C103.96 22.4934 103.826 22.6941 103.656 22.863C103.487 23.032 103.286 23.1659 103.065 23.2572C102.844 23.3484 102.608 23.3953 102.369 23.395Z" fill="#E6E6E6"/>
<path d="M102.369 42.1053H42.8594C42.3773 42.1046 41.9153 41.9127 41.5746 41.5716C41.234 41.2306 41.0427 40.7683 41.0427 40.2862C41.0427 39.8042 41.234 39.3419 41.5746 39.0008C41.9153 38.6597 42.3773 38.4678 42.8594 38.4672H102.369C102.608 38.4669 102.844 38.5137 103.065 38.6049C103.286 38.6962 103.487 38.8302 103.656 38.9991C103.826 39.1681 103.96 39.3687 104.051 39.5895C104.143 39.8104 104.19 40.0471 104.19 40.2862C104.19 40.5253 104.143 40.762 104.051 40.9829C103.96 41.2038 103.826 41.4044 103.656 41.5733C103.487 41.7423 103.286 41.8762 103.065 41.9675C102.844 42.0588 102.608 42.1056 102.369 42.1053Z" fill="#E6E6E6"/>
<path d="M102.369 60.8156H42.8594C42.3773 60.815 41.9153 60.6231 41.5746 60.282C41.234 59.9409 41.0427 59.4786 41.0427 58.9966C41.0427 58.5145 41.234 58.0522 41.5746 57.7111C41.9153 57.3701 42.3773 57.1781 42.8594 57.1775H102.369C102.608 57.1772 102.844 57.224 103.065 57.3153C103.286 57.4066 103.487 57.5405 103.656 57.7094C103.826 57.8784 103.96 58.079 104.051 58.2999C104.143 58.5207 104.19 58.7575 104.19 58.9966C104.19 59.2356 104.143 59.4724 104.051 59.6932C103.96 59.9141 103.826 60.1147 103.656 60.2837C103.487 60.4526 103.286 60.5866 103.065 60.6778C102.844 60.7691 102.608 60.8159 102.369 60.8156Z" fill="#E6E6E6"/>
<path d="M102.369 79.5259H42.8594C42.3773 79.5253 41.9153 79.3334 41.5746 78.9923C41.234 78.6512 41.0427 78.1889 41.0427 77.7069C41.0427 77.2248 41.234 76.7625 41.5746 76.4214C41.9153 76.0804 42.3773 75.8885 42.8594 75.8878H102.369C102.608 75.8875 102.844 75.9343 103.065 76.0256C103.286 76.1169 103.487 76.2508 103.656 76.4198C103.826 76.5887 103.96 76.7893 104.051 77.0102C104.143 77.2311 104.19 77.4678 104.19 77.7069C104.19 77.946 104.143 78.1827 104.051 78.4036C103.96 78.6244 103.826 78.825 103.656 78.994C103.487 79.1629 103.286 79.2969 103.065 79.3881C102.844 79.4794 102.608 79.5262 102.369 79.5259Z" fill="#E6E6E6"/>
<path d="M102.369 98.2363H42.8594C42.3773 98.2356 41.9153 98.0437 41.5746 97.7026C41.234 97.3616 41.0427 96.8992 41.0427 96.4172C41.0427 95.9352 41.234 95.4729 41.5746 95.1318C41.9153 94.7907 42.3773 94.5988 42.8594 94.5981H102.369C102.608 94.5978 102.844 94.6447 103.065 94.7359C103.286 94.8272 103.487 94.9611 103.656 95.1301C103.826 95.299 103.96 95.4997 104.051 95.7205C104.143 95.9414 104.19 96.1781 104.19 96.4172C104.19 96.6563 104.143 96.893 104.051 97.1139C103.96 97.3347 103.826 97.5354 103.656 97.7043C103.487 97.8733 103.286 98.0072 103.065 98.0985C102.844 98.1898 102.608 98.2366 102.369 98.2363Z" fill="#E6E6E6"/>
<path d="M91.974 23.395H42.5995C42.3604 23.3953 42.1236 23.3484 41.9026 23.2572C41.6817 23.1659 41.4809 23.032 41.3117 22.863C41.1425 22.6941 41.0083 22.4934 40.9167 22.2726C40.8252 22.0517 40.778 21.815 40.778 21.5759C40.778 21.3368 40.8252 21.1001 40.9167 20.8792C41.0083 20.6584 41.1425 20.4577 41.3117 20.2888C41.4809 20.1198 41.6817 19.9859 41.9026 19.8946C42.1236 19.8033 42.3604 19.7565 42.5995 19.7568H91.974C92.456 19.7575 92.9181 19.9494 93.2587 20.2905C93.5993 20.6315 93.7906 21.0939 93.7906 21.5759C93.7906 22.0579 93.5993 22.5203 93.2587 22.8613C92.9181 23.2024 92.456 23.3943 91.974 23.395Z" fill="#DC2627"/>
<path d="M76.6419 42.1053H42.5995C42.1171 42.1053 41.6544 41.9136 41.3132 41.5725C40.9721 41.2313 40.7804 40.7687 40.7804 40.2862C40.7804 39.8038 40.9721 39.3411 41.3132 39C41.6544 38.6588 42.1171 38.4672 42.5995 38.4672H76.6419C76.881 38.4669 77.1178 38.5137 77.3387 38.6049C77.5597 38.6962 77.7605 38.8302 77.9297 38.9991C78.0989 39.1681 78.2331 39.3687 78.3246 39.5895C78.4162 39.8104 78.4633 40.0471 78.4633 40.2862C78.4633 40.5253 78.4162 40.762 78.3246 40.9829C78.2331 41.2038 78.0989 41.4044 77.9297 41.5733C77.7605 41.7423 77.5597 41.8762 77.3387 41.9675C77.1178 42.0588 76.881 42.1056 76.6419 42.1053Z" fill="#DC2627"/>
<path d="M57.9316 60.8156H42.5995C42.3604 60.8159 42.1236 60.7691 41.9026 60.6778C41.6817 60.5866 41.4809 60.4526 41.3117 60.2837C41.1425 60.1147 41.0083 59.9141 40.9167 59.6932C40.8252 59.4724 40.778 59.2356 40.778 58.9966C40.778 58.7575 40.8252 58.5207 40.9167 58.2999C41.0083 58.079 41.1425 57.8784 41.3117 57.7094C41.4809 57.5405 41.6817 57.4066 41.9026 57.3153C42.1236 57.224 42.3604 57.1772 42.5995 57.1775H57.9316C58.4136 57.1781 58.8757 57.3701 59.2163 57.7111C59.5569 58.0522 59.7482 58.5145 59.7482 58.9966C59.7482 59.4786 59.5569 59.9409 59.2163 60.282C58.8757 60.6231 58.4136 60.815 57.9316 60.8156Z" fill="#DC2627"/>
<path d="M96.6515 79.5259H42.5995C42.1171 79.5259 41.6544 79.3343 41.3132 78.9931C40.9721 78.652 40.7804 78.1893 40.7804 77.7069C40.7804 77.2244 40.9721 76.7617 41.3132 76.4206C41.6544 76.0795 42.1171 75.8878 42.5995 75.8878H96.6515C97.134 75.8878 97.5967 76.0795 97.9378 76.4206C98.279 76.7617 98.4706 77.2244 98.4706 77.7069C98.4706 78.1893 98.279 78.652 97.9378 78.9931C97.5967 79.3343 97.134 79.5259 96.6515 79.5259Z" fill="#DC2627"/>
<path d="M84.6977 98.2363H42.5995C42.3604 98.2366 42.1236 98.1898 41.9026 98.0985C41.6817 98.0072 41.4809 97.8733 41.3117 97.7043C41.1425 97.5354 41.0083 97.3347 40.9167 97.1139C40.8252 96.893 40.778 96.6563 40.778 96.4172C40.778 96.1781 40.8252 95.9414 40.9167 95.7205C41.0083 95.4997 41.1425 95.299 41.3117 95.1301C41.4809 94.9611 41.6817 94.8272 41.9026 94.7359C42.1236 94.6447 42.3604 94.5978 42.5995 94.5981H84.6977C84.9368 94.5978 85.1736 94.6447 85.3946 94.7359C85.6156 94.8272 85.8164 94.9611 85.9855 95.1301C86.1547 95.299 86.2889 95.4997 86.3805 95.7205C86.472 95.9414 86.5192 96.1781 86.5192 96.4172C86.5192 96.6563 86.472 96.893 86.3805 97.1139C86.2889 97.3347 86.1547 97.5354 85.9855 97.7043C85.8164 97.8733 85.6156 98.0072 85.3946 98.0985C85.1736 98.1898 84.9368 98.2366 84.6977 98.2363Z" fill="#DC2627"/>
<path d="M158.768 85.0048C158.768 85.0048 156.796 70.5417 153.509 74.4862C150.222 78.4307 153.509 84.3474 153.509 84.3474L156.138 87.6345L158.768 85.6622V85.0048Z" fill="#9F616A"/>
<path d="M166.657 89.6068C166.657 89.6068 160.083 82.3752 158.768 83.6901C157.453 85.0049 153.509 85.6623 154.166 88.292C154.824 90.9216 168.629 99.468 168.629 99.468L166.657 89.6068Z" fill="#DC2627"/>
<path opacity="0.1" d="M166.657 89.6068C166.657 89.6068 160.083 82.3752 158.768 83.6901C157.453 85.0049 153.509 85.6623 154.166 88.292C154.824 90.9216 168.629 99.468 168.629 99.468L166.657 89.6068Z" fill="black"/>
<path d="M204.13 88.9493V94.2087C204.13 94.2087 204.787 106.042 200.843 105.385C196.898 104.727 198.87 94.8661 198.87 94.8661L199.528 88.9494L204.13 88.9493Z" fill="#9F616A"/>
<path d="M202.157 127.079C202.157 127.079 208.074 136.283 210.046 136.941C212.019 137.598 222.537 143.515 223.852 149.432L233.056 161.265L228.454 167.182C228.454 167.182 207.417 144.83 201.5 142.857C195.583 140.885 189.667 131.024 189.667 131.024L202.157 127.079Z" fill="#9F616A"/>
<path d="M155.481 111.959C155.481 111.959 142.99 113.931 144.962 121.82C146.935 129.709 166 146.144 166 146.144L166.657 150.089L173.889 151.404L177.176 148.117L176.518 146.144C176.518 146.144 168.629 138.913 167.972 136.283C167.314 133.654 160.083 123.135 156.796 122.478L161.398 119.848L155.481 111.959Z" fill="#9F616A"/>
<path d="M231.084 161.265C231.084 161.265 228.454 157.321 232.399 157.978C236.343 158.635 238.973 159.293 238.973 161.922C238.973 164.552 235.686 182.96 231.741 181.645C227.797 180.33 231.084 174.413 231.084 174.413C231.084 174.413 229.112 169.154 227.797 168.497C226.482 167.839 226.482 164.552 227.797 164.552C229.112 164.552 231.741 162.58 231.084 161.265Z" fill="#2F2E41"/>
<path d="M175.203 146.802C175.203 146.802 175.203 143.515 177.833 146.802C180.463 150.089 181.778 152.719 179.148 154.691C176.518 156.663 167.314 161.265 167.314 161.265C167.314 161.265 157.453 163.237 158.768 158.635C158.768 158.635 165.342 155.348 165.342 152.719C165.342 150.089 165.342 145.487 167.314 146.802C169.287 148.117 175.203 148.774 175.203 146.802Z" fill="#2F2E41"/>
<path d="M187.694 97.4957C187.694 97.4957 196.898 98.8106 196.241 111.959C196.241 111.959 208.074 123.792 204.787 127.737C201.5 131.681 194.268 138.913 191.639 136.941C189.009 134.968 181.12 119.848 181.12 119.848C181.12 119.848 162.713 126.422 159.425 123.135C156.138 119.848 152.851 111.959 152.851 111.959L169.287 103.412L187.694 97.4957Z" fill="#2F2E41"/>
<path d="M162.055 60.0231C166.412 60.0231 169.944 56.4911 169.944 52.1341C169.944 47.7771 166.412 44.2451 162.055 44.2451C157.698 44.2451 154.166 47.7771 154.166 52.1341C154.166 56.4911 157.698 60.0231 162.055 60.0231Z" fill="#9F616A"/>
<path d="M167.972 52.7915C167.972 52.7915 172.574 60.0231 173.889 60.6805C175.203 61.3379 164.685 67.9121 164.685 67.9121C164.685 67.9121 164.685 59.3657 161.398 57.3934L167.972 52.7915Z" fill="#9F616A"/>
<path d="M168.629 60.0231C168.629 60.0231 179.148 56.736 181.12 61.9953C183.092 67.2546 187.694 77.1159 187.037 83.69C186.38 90.2642 185.065 88.9494 187.037 90.9216C189.009 92.8939 190.324 91.579 189.667 94.2087C189.009 96.8383 188.352 96.8383 189.009 98.1532C189.667 99.468 181.12 104.07 173.889 104.727L166.657 105.385C166.657 105.385 166.657 93.5513 165.342 90.9216C164.027 88.2919 161.398 83.0326 161.398 81.0604V75.842C161.398 72.3687 162.304 68.9555 164.027 65.9398C164.027 65.9398 167.972 60.0231 168.629 60.0231Z" fill="#DC2627"/>
<path d="M176.518 62.6527C176.518 62.6527 200.843 64.625 203.472 71.1991C206.102 77.7733 207.417 90.9216 204.787 90.9216C202.157 90.9216 198.87 92.2364 198.213 90.9216C197.556 89.6067 194.926 76.4584 194.268 76.4584C193.611 76.4584 173.889 74.4862 173.889 74.4862C173.889 74.4862 165.342 63.9675 176.518 62.6527Z" fill="#DC2627"/>
<path d="M161.738 50.1784C161.738 50.1784 159.645 46.5402 157.028 49.7003C154.411 52.8603 150.154 47.0532 150.807 45.8141C151.461 44.5749 153.769 45.8698 157.724 44.5769C161.679 43.284 169.297 40.6501 170.573 49.2419C171.849 57.8337 168.81 56.933 168.81 56.933C168.81 56.933 167.417 49.3197 166.159 51.5066L164.9 53.6934L163.808 53.9622L161.738 50.1784Z" fill="#2F2E41"/>
</g>
<defs>
<clipPath id="clip0_33_1570">
<rect width="280" height="181.712" fill="white"/>
</clipPath>
</defs>
</svg>
